<svg xmlns="http://www.w3.org/2000/svg" xmlns:xlink="http://www.w3.org/1999/xlink" width="500" zoomAndPan="magnify" viewBox="0 0 375 374.999991" height="500" preserveAspectRatio="xMidYMid meet" version="1.0"><defs><g/></defs><g fill="#e5beec" fill-opacity="1"><g transform="translate(0.832302, 294.034058)"><g><path d="M 5.96875 -198.859375 L 153.6875 -198.859375 L 156.53125 -142.609375 L 151.40625 -142.609375 C 143.457031 -161.734375 135.125 -174.847656 126.40625 -181.953125 C 117.695312 -189.054688 104.914062 -192.609375 88.0625 -192.609375 L 78.125 -192.609375 L 78.125 -104.828125 L 87.78125 -104.828125 C 96.675781 -104.828125 104.15625 -108.1875 110.21875 -114.90625 C 116.28125 -121.632812 120.539062 -130.675781 123 -142.03125 L 127.265625 -142.03125 L 127.265625 -57.953125 L 122.4375 -57.953125 C 119.03125 -72.148438 114.4375 -82.28125 108.65625 -88.34375 C 102.882812 -94.40625 94.976562 -97.4375 84.9375 -97.4375 L 78.125 -97.4375 L 78.125 -6.25 L 88.921875 -6.25 C 106.335938 -6.25 121.15625 -11.457031 133.375 -21.875 C 145.59375 -32.289062 153.972656 -45.640625 158.515625 -61.921875 L 164.203125 -61.921875 L 161.921875 0 L 5.96875 0 L 5.96875 -6.25 L 22.71875 -6.25 L 22.71875 -192.609375 L 5.96875 -192.609375 Z M 5.96875 -198.859375 "/></g></g></g><g fill="#e5beec" fill-opacity="1"><g transform="translate(178.087445, 294.034058)"><g><path d="M 113.625 -196.296875 C 84.269531 -196.296875 69.59375 -167.984375 69.59375 -111.359375 L 69.59375 -88.921875 C 69.59375 -62.023438 73.472656 -40.953125 81.234375 -25.703125 C 89.003906 -10.460938 100.46875 -2.84375 115.625 -2.84375 C 136.457031 -2.84375 155.582031 -23.109375 173 -63.640625 L 178.109375 -63.640625 L 176.125 -0.28125 L 173 -0.28125 C 171.863281 -2.363281 170.820312 -3.832031 169.875 -4.6875 C 168.925781 -5.539062 167.550781 -5.96875 165.75 -5.96875 C 163.957031 -5.96875 157.09375 -4.5 145.15625 -1.5625 C 133.226562 1.375 121.109375 2.84375 108.796875 2.84375 C 77.929688 2.84375 54.019531 -5.488281 37.0625 -22.15625 C 20.113281 -38.820312 11.640625 -63.867188 11.640625 -97.296875 C 11.640625 -130.722656 20.492188 -156.523438 38.203125 -174.703125 C 55.910156 -192.890625 79.726562 -201.984375 109.65625 -201.984375 C 121.207031 -201.984375 132.519531 -200.515625 143.59375 -197.578125 C 154.675781 -194.640625 161.164062 -193.171875 163.0625 -193.171875 C 164.957031 -193.171875 166.378906 -193.597656 167.328125 -194.453125 C 168.273438 -195.304688 169.316406 -196.773438 170.453125 -198.859375 L 173.578125 -198.859375 L 175.84375 -137.203125 L 170.734375 -137.203125 C 162.210938 -156.335938 153.453125 -170.96875 144.453125 -181.09375 C 135.453125 -191.226562 125.175781 -196.296875 113.625 -196.296875 Z M 113.625 -196.296875 "/></g></g></g></svg>